<mxfile host="app.diagrams.net" modified="2021-12-03T17:52:57.150Z" agent="5.0 (Windows NT 10.0; Win64; x64) AppleWebKit/537.36 (KHTML, like Gecko) Chrome/96.0.4664.45 Safari/537.36" etag="64gpYIvFbl3HU0mbdKPv" version="15.9.1" type="github">
  <diagram id="lxmAUaKbcfgkoZFE1ZIf" name="Page-1">
    <mxGraphModel dx="1422" dy="1871" grid="1" gridSize="10" guides="1" tooltips="1" connect="1" arrows="1" fold="1" page="1" pageScale="1" pageWidth="850" pageHeight="1100" math="0" shadow="0">
      <root>
        <mxCell id="0" />
        <mxCell id="1" parent="0" />
        <mxCell id="OlPUNL9DRARCpIIO6Ml5-22" style="edgeStyle=orthogonalEdgeStyle;rounded=0;orthogonalLoop=1;jettySize=auto;html=1;exitX=0.5;exitY=1;exitDx=0;exitDy=0;entryX=0.5;entryY=0;entryDx=0;entryDy=0;" edge="1" parent="1" source="OlPUNL9DRARCpIIO6Ml5-18" target="OlPUNL9DRARCpIIO6Ml5-19">
          <mxGeometry relative="1" as="geometry" />
        </mxCell>
        <mxCell id="OlPUNL9DRARCpIIO6Ml5-18" value="delayLevel &amp;gt; 0" style="rhombus;whiteSpace=wrap;html=1;" vertex="1" parent="1">
          <mxGeometry x="70" y="-940" width="120" height="80" as="geometry" />
        </mxCell>
        <mxCell id="OlPUNL9DRARCpIIO6Ml5-35" style="edgeStyle=orthogonalEdgeStyle;rounded=0;orthogonalLoop=1;jettySize=auto;html=1;exitX=0.5;exitY=1;exitDx=0;exitDy=0;entryX=0.5;entryY=0;entryDx=0;entryDy=0;" edge="1" parent="1" source="OlPUNL9DRARCpIIO6Ml5-19" target="OlPUNL9DRARCpIIO6Ml5-23">
          <mxGeometry relative="1" as="geometry" />
        </mxCell>
        <mxCell id="OlPUNL9DRARCpIIO6Ml5-19" value="modify Topic &amp;amp; QueueId" style="shape=process;whiteSpace=wrap;html=1;backgroundOutline=1;fillColor=#f5f5f5;strokeColor=#666666;fontColor=#333333;" vertex="1" parent="1">
          <mxGeometry x="70" y="-810" width="120" height="60" as="geometry" />
        </mxCell>
        <mxCell id="OlPUNL9DRARCpIIO6Ml5-7" value="Consumer" style="rounded=0;whiteSpace=wrap;html=1;fillColor=#fff2cc;strokeColor=#d6b656;" vertex="1" parent="1">
          <mxGeometry x="70" y="-310" width="120" height="60" as="geometry" />
        </mxCell>
        <mxCell id="OlPUNL9DRARCpIIO6Ml5-21" style="edgeStyle=orthogonalEdgeStyle;rounded=0;orthogonalLoop=1;jettySize=auto;html=1;entryX=0.5;entryY=0;entryDx=0;entryDy=0;" edge="1" parent="1" source="OlPUNL9DRARCpIIO6Ml5-4" target="OlPUNL9DRARCpIIO6Ml5-18">
          <mxGeometry relative="1" as="geometry" />
        </mxCell>
        <mxCell id="OlPUNL9DRARCpIIO6Ml5-4" value="Producer" style="rounded=0;whiteSpace=wrap;html=1;fillColor=#fff2cc;strokeColor=#d6b656;" vertex="1" parent="1">
          <mxGeometry x="70" y="-1060" width="120" height="60" as="geometry" />
        </mxCell>
        <mxCell id="OlPUNL9DRARCpIIO6Ml5-36" style="edgeStyle=orthogonalEdgeStyle;rounded=0;orthogonalLoop=1;jettySize=auto;html=1;exitX=1;exitY=0.5;exitDx=0;exitDy=0;entryX=0;entryY=0.5;entryDx=0;entryDy=0;" edge="1" parent="1" source="OlPUNL9DRARCpIIO6Ml5-23" target="OlPUNL9DRARCpIIO6Ml5-24">
          <mxGeometry relative="1" as="geometry" />
        </mxCell>
        <mxCell id="OlPUNL9DRARCpIIO6Ml5-37" style="edgeStyle=orthogonalEdgeStyle;rounded=0;orthogonalLoop=1;jettySize=auto;html=1;exitX=1;exitY=0.5;exitDx=0;exitDy=0;entryX=0;entryY=0.5;entryDx=0;entryDy=0;" edge="1" parent="1" source="OlPUNL9DRARCpIIO6Ml5-23" target="OlPUNL9DRARCpIIO6Ml5-25">
          <mxGeometry relative="1" as="geometry" />
        </mxCell>
        <mxCell id="OlPUNL9DRARCpIIO6Ml5-38" style="edgeStyle=orthogonalEdgeStyle;rounded=0;orthogonalLoop=1;jettySize=auto;html=1;exitX=1;exitY=0.5;exitDx=0;exitDy=0;entryX=0;entryY=0.5;entryDx=0;entryDy=0;" edge="1" parent="1" source="OlPUNL9DRARCpIIO6Ml5-23" target="OlPUNL9DRARCpIIO6Ml5-26">
          <mxGeometry relative="1" as="geometry" />
        </mxCell>
        <mxCell id="OlPUNL9DRARCpIIO6Ml5-39" style="edgeStyle=orthogonalEdgeStyle;rounded=0;orthogonalLoop=1;jettySize=auto;html=1;exitX=1;exitY=0.5;exitDx=0;exitDy=0;entryX=0;entryY=0.5;entryDx=0;entryDy=0;" edge="1" parent="1" source="OlPUNL9DRARCpIIO6Ml5-23" target="OlPUNL9DRARCpIIO6Ml5-32">
          <mxGeometry relative="1" as="geometry" />
        </mxCell>
        <mxCell id="OlPUNL9DRARCpIIO6Ml5-23" value="Schedule message&lt;br&gt;CommitLog" style="rounded=0;whiteSpace=wrap;html=1;fillColor=#d5e8d4;strokeColor=#82b366;" vertex="1" parent="1">
          <mxGeometry x="70" y="-690" width="120" height="60" as="geometry" />
        </mxCell>
        <mxCell id="OlPUNL9DRARCpIIO6Ml5-24" value="Schedule message&lt;br&gt;ConsumeQueue 1" style="rounded=0;whiteSpace=wrap;html=1;fillColor=#d5e8d4;strokeColor=#82b366;" vertex="1" parent="1">
          <mxGeometry x="240" y="-740" width="120" height="30" as="geometry" />
        </mxCell>
        <mxCell id="OlPUNL9DRARCpIIO6Ml5-25" value="Schedule message&lt;br&gt;ConsumeQueue 2" style="rounded=0;whiteSpace=wrap;html=1;fillColor=#d5e8d4;strokeColor=#82b366;" vertex="1" parent="1">
          <mxGeometry x="240" y="-690" width="120" height="30" as="geometry" />
        </mxCell>
        <mxCell id="OlPUNL9DRARCpIIO6Ml5-26" value="Schedule message&lt;br&gt;ConsumeQueue 3" style="rounded=0;whiteSpace=wrap;html=1;fillColor=#d5e8d4;strokeColor=#82b366;" vertex="1" parent="1">
          <mxGeometry x="240" y="-640" width="120" height="30" as="geometry" />
        </mxCell>
        <mxCell id="OlPUNL9DRARCpIIO6Ml5-40" style="edgeStyle=orthogonalEdgeStyle;rounded=0;orthogonalLoop=1;jettySize=auto;html=1;exitX=0;exitY=0.5;exitDx=0;exitDy=0;entryX=1;entryY=0.5;entryDx=0;entryDy=0;" edge="1" parent="1" source="OlPUNL9DRARCpIIO6Ml5-27" target="OlPUNL9DRARCpIIO6Ml5-24">
          <mxGeometry relative="1" as="geometry" />
        </mxCell>
        <mxCell id="OlPUNL9DRARCpIIO6Ml5-48" style="edgeStyle=orthogonalEdgeStyle;rounded=0;orthogonalLoop=1;jettySize=auto;html=1;exitX=0.5;exitY=1;exitDx=0;exitDy=0;entryX=0.5;entryY=0;entryDx=0;entryDy=0;" edge="1" parent="1" source="OlPUNL9DRARCpIIO6Ml5-27" target="OlPUNL9DRARCpIIO6Ml5-47">
          <mxGeometry relative="1" as="geometry" />
        </mxCell>
        <mxCell id="OlPUNL9DRARCpIIO6Ml5-27" value="DeliverTask 1" style="shape=process;whiteSpace=wrap;html=1;backgroundOutline=1;fillColor=#f5f5f5;fontColor=#333333;strokeColor=#666666;" vertex="1" parent="1">
          <mxGeometry x="440" y="-740" width="120" height="30" as="geometry" />
        </mxCell>
        <mxCell id="OlPUNL9DRARCpIIO6Ml5-42" style="edgeStyle=orthogonalEdgeStyle;rounded=0;orthogonalLoop=1;jettySize=auto;html=1;exitX=0;exitY=0.5;exitDx=0;exitDy=0;entryX=1;entryY=0.5;entryDx=0;entryDy=0;" edge="1" parent="1" source="OlPUNL9DRARCpIIO6Ml5-28" target="OlPUNL9DRARCpIIO6Ml5-25">
          <mxGeometry relative="1" as="geometry" />
        </mxCell>
        <mxCell id="OlPUNL9DRARCpIIO6Ml5-28" value="DeliverTask 2" style="shape=process;whiteSpace=wrap;html=1;backgroundOutline=1;fillColor=#f5f5f5;fontColor=#333333;strokeColor=#666666;" vertex="1" parent="1">
          <mxGeometry x="440" y="-690" width="120" height="30" as="geometry" />
        </mxCell>
        <mxCell id="OlPUNL9DRARCpIIO6Ml5-43" style="edgeStyle=orthogonalEdgeStyle;rounded=0;orthogonalLoop=1;jettySize=auto;html=1;exitX=0;exitY=0.5;exitDx=0;exitDy=0;" edge="1" parent="1" source="OlPUNL9DRARCpIIO6Ml5-29" target="OlPUNL9DRARCpIIO6Ml5-26">
          <mxGeometry relative="1" as="geometry" />
        </mxCell>
        <mxCell id="OlPUNL9DRARCpIIO6Ml5-29" value="DeliverTask 3" style="shape=process;whiteSpace=wrap;html=1;backgroundOutline=1;fillColor=#f5f5f5;fontColor=#333333;strokeColor=#666666;" vertex="1" parent="1">
          <mxGeometry x="440" y="-640" width="120" height="30" as="geometry" />
        </mxCell>
        <mxCell id="OlPUNL9DRARCpIIO6Ml5-32" value="......" style="rounded=0;whiteSpace=wrap;html=1;fillColor=#d5e8d4;strokeColor=#82b366;" vertex="1" parent="1">
          <mxGeometry x="240" y="-590" width="120" height="30" as="geometry" />
        </mxCell>
        <mxCell id="OlPUNL9DRARCpIIO6Ml5-44" style="edgeStyle=orthogonalEdgeStyle;rounded=0;orthogonalLoop=1;jettySize=auto;html=1;exitX=0;exitY=0.5;exitDx=0;exitDy=0;entryX=1;entryY=0.5;entryDx=0;entryDy=0;" edge="1" parent="1" source="OlPUNL9DRARCpIIO6Ml5-33" target="OlPUNL9DRARCpIIO6Ml5-32">
          <mxGeometry relative="1" as="geometry" />
        </mxCell>
        <mxCell id="OlPUNL9DRARCpIIO6Ml5-33" value="......" style="shape=process;whiteSpace=wrap;html=1;backgroundOutline=1;fillColor=#f5f5f5;fontColor=#333333;strokeColor=#666666;" vertex="1" parent="1">
          <mxGeometry x="440" y="-590" width="120" height="30" as="geometry" />
        </mxCell>
        <mxCell id="OlPUNL9DRARCpIIO6Ml5-34" value="ScheduleMessageService" style="swimlane;" vertex="1" parent="1">
          <mxGeometry x="430" y="-780" width="140" height="240" as="geometry" />
        </mxCell>
        <mxCell id="OlPUNL9DRARCpIIO6Ml5-41" value="loop scan" style="text;html=1;align=center;verticalAlign=middle;resizable=0;points=[];autosize=1;strokeColor=none;fillColor=none;" vertex="1" parent="1">
          <mxGeometry x="360" y="-750" width="70" height="20" as="geometry" />
        </mxCell>
        <mxCell id="OlPUNL9DRARCpIIO6Ml5-52" style="edgeStyle=orthogonalEdgeStyle;rounded=0;orthogonalLoop=1;jettySize=auto;html=1;exitX=0.5;exitY=1;exitDx=0;exitDy=0;entryX=0.5;entryY=0;entryDx=0;entryDy=0;fontColor=#000000;" edge="1" parent="1" source="OlPUNL9DRARCpIIO6Ml5-45" target="OlPUNL9DRARCpIIO6Ml5-51">
          <mxGeometry relative="1" as="geometry" />
        </mxCell>
        <mxCell id="OlPUNL9DRARCpIIO6Ml5-45" value="Real message&lt;br&gt;CommitLog" style="rounded=0;whiteSpace=wrap;html=1;fillColor=#d5e8d4;strokeColor=#82b366;" vertex="1" parent="1">
          <mxGeometry x="70" y="-490" width="120" height="60" as="geometry" />
        </mxCell>
        <mxCell id="OlPUNL9DRARCpIIO6Ml5-50" style="edgeStyle=orthogonalEdgeStyle;rounded=0;orthogonalLoop=1;jettySize=auto;html=1;exitX=0;exitY=0.5;exitDx=0;exitDy=0;entryX=1;entryY=0.5;entryDx=0;entryDy=0;" edge="1" parent="1" source="OlPUNL9DRARCpIIO6Ml5-47" target="OlPUNL9DRARCpIIO6Ml5-45">
          <mxGeometry relative="1" as="geometry" />
        </mxCell>
        <mxCell id="OlPUNL9DRARCpIIO6Ml5-47" value="Revert message Topic &amp;amp; QueueId" style="shape=process;whiteSpace=wrap;html=1;backgroundOutline=1;" vertex="1" parent="1">
          <mxGeometry x="440" y="-490" width="120" height="60" as="geometry" />
        </mxCell>
        <mxCell id="OlPUNL9DRARCpIIO6Ml5-49" value="found message reaches deliver time" style="text;html=1;align=center;verticalAlign=middle;resizable=0;points=[];autosize=1;strokeColor=none;fillColor=none;" vertex="1" parent="1">
          <mxGeometry x="280" y="-530" width="210" height="20" as="geometry" />
        </mxCell>
        <mxCell id="OlPUNL9DRARCpIIO6Ml5-53" style="edgeStyle=orthogonalEdgeStyle;rounded=0;orthogonalLoop=1;jettySize=auto;html=1;exitX=0.5;exitY=1;exitDx=0;exitDy=0;entryX=0.5;entryY=0;entryDx=0;entryDy=0;fontColor=#000000;" edge="1" parent="1" source="OlPUNL9DRARCpIIO6Ml5-51" target="OlPUNL9DRARCpIIO6Ml5-7">
          <mxGeometry relative="1" as="geometry" />
        </mxCell>
        <mxCell id="OlPUNL9DRARCpIIO6Ml5-51" value="Real Topic &amp;amp; QueueId&lt;br&gt;ConsumeQueue" style="rounded=0;whiteSpace=wrap;html=1;fillColor=#d5e8d4;strokeColor=#82b366;" vertex="1" parent="1">
          <mxGeometry x="70" y="-400" width="120" height="30" as="geometry" />
        </mxCell>
        <mxCell id="OlPUNL9DRARCpIIO6Ml5-54" value="Producer" style="swimlane;horizontal=0;fontColor=#000000;" vertex="1" parent="1">
          <mxGeometry y="-1100" width="640" height="130" as="geometry" />
        </mxCell>
        <mxCell id="OlPUNL9DRARCpIIO6Ml5-56" value="Broker" style="swimlane;horizontal=0;fontColor=#000000;" vertex="1" parent="1">
          <mxGeometry y="-970" width="640" height="630" as="geometry" />
        </mxCell>
        <mxCell id="OlPUNL9DRARCpIIO6Ml5-57" value="Consumer" style="swimlane;horizontal=0;fontColor=#000000;" vertex="1" parent="1">
          <mxGeometry y="-340" width="640" height="120" as="geometry" />
        </mxCell>
      </root>
    </mxGraphModel>
  </diagram>
</mxfile>
